<?xml version="1.0" encoding="UTF-8"?>
<svg width="1024" height="1024" enable-background="new" version="1.1" viewBox="0 0 270.93 270.93" xmlns="http://www.w3.org/2000/svg" xmlns:xlink="http://www.w3.org/1999/xlink">
 <defs>
  <linearGradient id="linearGradient3612" x1="-271.07" x2=".13229" y1="135.47" y2="135.47" gradientTransform="matrix(.99902 0 0 .99902 -15.457 -248.03)" gradientUnits="userSpaceOnUse">
   <stop stop-color="#00b3ff" offset="0"/>
   <stop stop-color="#00b3ff" stop-opacity="0" offset="1"/>
  </linearGradient>
 </defs>
 <g>
  <g transform="matrix(.97656 0 0 .97656 245.52 -11.791)" stroke="#00f" stroke-width=".26433">
   <path transform="rotate(-90)" x="-286.12613" y="-248.03305" width="270.66901" height="270.66901" d="m-219.98-248.03h138.38a66.146 66.146 45 0 1 66.146 66.146v138.38a66.146 66.146 135 0 1-66.146 66.146h-138.38a66.146 66.146 45 0 1-66.146-66.146v-138.38a66.146 66.146 135 0 1 66.146-66.146z" fill="#006993"/>
   <path transform="rotate(-90)" x="-286.12613" y="-248.03307" width="270.66901" height="270.66901" d="m-219.98-248.03h138.38a66.146 66.146 45 0 1 66.146 66.146v138.38a66.146 66.146 135 0 1-66.146 66.146h-138.38a66.146 66.146 45 0 1-66.146-66.146v-138.38a66.146 66.146 135 0 1 66.146-66.146z" fill="url(#linearGradient3612)"/>
  </g>
 </g>
 <path d="m44.883 57.5 16.413 28.427a3.0552 3.0552 30 0 0 2.6458 1.5276h102.46a1.0184 1.0184 60 0 1 0.88194 1.5276l-33.396 57.843a1.8348 1.8348 163.87 0 1-2.4431 0.70652l-50.12-26.359a1.0549 1.0549 148.62 0 0-1.5459 0.94277l0.21646 25.003a2.9494 2.9494 58.622 0 0 1.5764 2.5849l37.295 19.614a1.6957 1.6957 73.87 0 1 0.67922 2.3486l-3.0296 5.2476a1.6957 1.6957 73.87 0 0 0.67922 2.3486l27.838 14.641a1.8348 1.8348 163.87 0 0 2.4431-0.70653l3.0296-5.2476a1.8348 1.8348 163.87 0 1 2.4431-0.70654l45.478 23.918a1.0549 1.0549 148.62 0 0 1.5459-0.94278l-0.21646-25.003a2.9494 2.9494 58.622 0 0-1.5764-2.5849l-32.653-17.173a1.6957 1.6957 73.871 0 1-0.6792-2.3486l60.973-105.61a1.0184 1.0184 60 0 0-0.88194-1.5276h-179.17a1.0184 1.0184 120 0 0-0.88193 1.5276zm65.072 130.77-3.03 5.2481a1.6957 1.6957 73.871 0 0 0.67919 2.3486l27.838 14.64a1.8349 1.8349 163.87 0 0 2.4431-0.70653l3.03-5.2481a1.6957 1.6957 73.871 0 0-0.67919-2.3486l-27.838-14.64a1.8349 1.8349 163.87 0 0-2.4431 0.70653zm-9.5874 16.605-11.835 20.499a1.0184 1.0184 60 0 0 0.88195 1.5276h36.833a3.0551 3.0551 150 0 0 2.6458-1.5276l2.4342-4.2164a1.6957 1.6957 73.87 0 0-0.67924-2.3486l-27.838-14.64a1.8348 1.8348 163.87 0 0-2.4431 0.70654z" fill="#fffefe"/>
</svg>
