<svg width="512" height="512" version="1.1" viewBox="0 0 512 512"
    xmlns="http://www.w3.org/2000/svg"
    xmlns:xlink="http://www.w3.org/1999/xlink">
    <g>
        <path d="m94.595 112.82c-35.786 0-64.595 28.809-64.595 64.595v238.68h70.075l55.372-40.325c-5.579-10.503-9.5509-21.968-11.604-34.071a29.263 29.263 0 0 1-1.6237 0.11637 29.263 29.263 0 0 1-29.262-29.262 29.263 29.263 0 0 1 29.262-29.262 29.263 29.263 0 0 1 6.798 0.80647c12.627-34.718 41.738-61.674 77.752-71.309a29.263 29.263 0 0 1 29.233-28.824 29.263 29.263 0 0 1 29.251 28.827c36.029 9.6429 65.144 36.623 77.758 71.366a29.263 29.263 0 0 1 6.7791-0.866 29.263 29.263 0 0 1 29.262 29.262 29.263 29.263 0 0 1-29.262 29.262 29.263 29.263 0 0 1-1.6237-0.11637c-2.0534 12.103-6.0253 23.568-11.604 34.071l55.372 40.325h70.067v-238.68c0-35.786-28.809-64.595-64.595-64.595zm161.41 137.69c-40.13 0-72.218 32.088-72.218 72.218 0 10.057 2.0149 19.609 5.6668 28.277l41.102-29.933a48.366 56.929 0 0 1 50.898 0l41.102 29.933c3.6519-8.6679 5.6668-18.22 5.6668-28.277 0-40.13-32.088-72.218-72.218-72.218z" style="paint-order:stroke fill markers"/>
    </g>
</svg>
